<?xml version="1.0" encoding="utf-8"?>
<!-- Generator: Adobe Illustrator 19.1.0, SVG Export Plug-In . SVG Version: 6.00 Build 0)  -->
<svg version="1.1" id="Layer_1" xmlns="http://www.w3.org/2000/svg" xmlns:xlink="http://www.w3.org/1999/xlink" x="0px" y="0px"
	 viewBox="-423 230 167 169" style="enable-background:new -423 230 167 169;" xml:space="preserve">
<style type="text/css">
	.st0{fill:#FFDE17;stroke:#BA9E30;stroke-miterlimit:10;}
	.st1{fill:none;stroke:#FCF2CA;stroke-width:0.75;stroke-miterlimit:10;}
	.st2{fill:#F38090;}
	.st3{font-family:'MyriadPro-Regular';}
	.st4{font-size:15.0777px;}
	.st5{font-size:15.0766px;}
</style>
<g>
	<path class="st0" d="M-407.5,338.6c-1.3-1.8-0.3-5.3,1.8-4.5c44.5,18.3,134.9-40.5,126.4-77.6c-1-4.5,13.8,0.8,6.3,8.5
		c-7.3,7.5-5.3,4.5-1,20.1c2.3,8,1,20.6-5,33.7c-9.3,19.9-27.1,34.2-48.5,39.5c-11.8,3-26.9,5-39.7,2
		C-387.9,355.1-402.7,344.3-407.5,338.6z"/>
	<path class="st1" d="M-347,354.9c0,1.5-13.1,3.3-26.6-0.3"/>
	<path class="st1" d="M-277.3,295.8c0.8,1-0.8,9-5,13.1"/>
	<text transform="matrix(0.6026 -0.7981 0.7981 0.6026 -299.5281 337.9144)" class="st2 st3 st4">wun</text>
	<text transform="matrix(0.9323 -0.3616 0.3616 0.9323 -337.1573 357.0857)" class="st2 st3 st5">wun</text>
	<circle class="st2" cx="-307.5" cy="340.1" r="2.3"/>
</g>
</svg>
