<?xml version="1.0" standalone="no"?>
<!DOCTYPE svg PUBLIC "-//W3C//DTD SVG 20010904//EN"
 "http://www.w3.org/TR/2001/REC-SVG-20010904/DTD/svg10.dtd">
<svg version="1.0" xmlns="http://www.w3.org/2000/svg"
 width="111.000000pt" height="111.000000pt" viewBox="0 0 111.000000 111.000000"
 preserveAspectRatio="xMidYMid meet">
<metadata>
Created by potrace 1.11, written by Peter Selinger 2001-2013
</metadata>
<g transform="translate(0.000000,111.000000) scale(0.100000,-0.100000)"
fill="#000000" stroke="none">
<path d="M947 943 c-3 -5 -3 -19 -2 -33 2 -32 -22 -107 -49 -145 -60 -88 -187
-194 -301 -253 -52 -27 -125 -59 -140 -62 -3 0 -24 -8 -47 -16 -60 -21 -196
-29 -254 -15 -144 36 -3 -95 166 -155 25 -9 81 -17 125 -19 250 -10 460 124
526 336 23 74 24 134 3 206 -15 52 -15 56 4 76 31 35 34 55 9 72 -24 17 -34
19 -40 8z"/>
</g>
</svg>
