<?xml version="1.0" encoding="utf-8"?>
<!-- Generator: Adobe Illustrator 19.1.0, SVG Export Plug-In . SVG Version: 6.00 Build 0)  -->
<svg version="1.1" id="Layer_2" xmlns="http://www.w3.org/2000/svg" xmlns:xlink="http://www.w3.org/1999/xlink" x="0px" y="0px"
	 viewBox="-361 273.5 446 67.5" style="enable-background:new -361 273.5 446 67.5;" xml:space="preserve">
<style type="text/css">
	.st0{fill:#FFDE17;stroke:#BA9E30;stroke-miterlimit:10;}
	.st1{fill:none;stroke:#FCF2CA;stroke-width:0.75;stroke-miterlimit:10;}
	.st2{fill:#F38090;}
	.st3{font-family:'MyriadPro-Regular';}
	.st4{font-size:9.914px;}
	.st5{fill:#FFFFFF;}
	.st6{font-family:'Chalkduster';}
	.st7{font-size:35.6534px;}
</style>
<g>
	<g>
		<path class="st0" d="M-349.4,312.5c-0.4-0.6-0.1-1.7,0.6-1.5c14.6,6,44.4-13.3,41.6-25.5c-0.3-1.5,4.5,0.2,2.1,2.8
			c-2.4,2.5-1.7,1.5-0.3,6.6c0.7,2.6,0.3,6.8-1.7,11.1c-3.1,6.5-8.9,11.2-15.9,13c-3.9,1-8.8,1.7-13.1,0.7
			C-343,318-347.8,314.4-349.4,312.5z"/>
		<path class="st1" d="M-318.6,313.9c0.1,1.2-7,4.6-14.2,4.4"/>
		<path class="st1" d="M-306.8,298.7c0.2,0.3-0.2,3-1.6,4.3"/>
	</g>
	<text transform="matrix(1 0 0 1 -349.5497 329.9166)" class="st2 st3 st4">wun</text>
	<text transform="matrix(1 0 0 1 -322.8133 329.9166)" class="st2 st3 st4">wun</text>
	<circle class="st2" cx="-327.3" cy="327.3" r="1.5"/>
</g>
<text transform="matrix(1 0 0 1 -296 320.3151)" class="st5 st6 st7">Wun_Lui Portfolio</text>
</svg>
