<?xml version="1.0" encoding="utf-8"?>
<!-- Generator: Adobe Illustrator 19.1.0, SVG Export Plug-In . SVG Version: 6.00 Build 0)  -->
<svg version="1.1" id="Layer_1" xmlns="http://www.w3.org/2000/svg" xmlns:xlink="http://www.w3.org/1999/xlink" x="0px" y="0px"
	 viewBox="0 0 71 67" style="enable-background:new 0 0 71 67;" xml:space="preserve">
<style type="text/css">
	.st0{fill:#FFDE17;stroke:#BA9E30;stroke-miterlimit:10;}
	.st1{fill:none;stroke:#FCF2CA;stroke-width:0.75;stroke-miterlimit:10;}
	.st2{fill:#F38090;}
	.st3{font-family:'MyriadPro-Regular';}
	.st4{font-size:12px;}
</style>
<g>
	<g>
		<path class="st0" d="M8.7,40.9c-0.5-0.7-0.1-2.1,0.7-1.8C27.1,46.4,63.1,23,59.7,8.2c-0.4-1.8,5.5,0.3,2.5,3.4s-2.1,1.8-0.4,8
			c0.9,3.2,0.4,8.2-2,13.4c-3.7,7.9-10.8,13.6-19.3,15.7c-4.7,1.2-10.7,2-15.8,0.8C16.5,47.5,10.6,43.2,8.7,40.9z"/>
		<path class="st1" d="M46,42.6c0.1,1.4-8.5,5.6-17.2,5.3"/>
		<path class="st1" d="M60.2,24.1c0.3,0.4-0.2,3.6-1.9,5.2"/>
	</g>
	<text transform="matrix(1 0 0 1 25.2249 61.0103)" class="st2 st3 st4">wun</text>
	<circle class="st2" cx="52.2" cy="57.8" r="1.8"/>
	<circle class="st2" cx="20.5" cy="57.8" r="1.8"/>
</g>
</svg>
