<?xml version="1.0" encoding="utf-8"?>
<!-- Generator: Adobe Illustrator 19.1.0, SVG Export Plug-In . SVG Version: 6.00 Build 0)  -->
<svg version="1.1" id="Layer_1" xmlns="http://www.w3.org/2000/svg" xmlns:xlink="http://www.w3.org/1999/xlink" x="0px" y="0px"
	 viewBox="0 0 68 65" style="enable-background:new 0 0 68 65;" xml:space="preserve">
<style type="text/css">
	.st0{fill:#FFDE17;stroke:#BA9E30;stroke-miterlimit:10;}
	.st1{fill:none;stroke:#FCF2CA;stroke-width:0.75;stroke-miterlimit:10;}
	.st2{fill:#F38090;}
	.st3{font-family:'MyriadPro-Regular';}
	.st4{font-size:6px;}
</style>
<g>
	<path class="st0" d="M6.7,44c-0.5-0.7-0.1-2.1,0.7-1.8c17.7,7.3,53.7-16.1,50.3-30.9c-0.4-1.8,5.5,0.3,2.5,3.4
		c-2.9,3-2.1,1.8-0.4,8c0.9,3.2,0.4,8.2-2,13.4c-3.7,7.9-10.8,13.6-19.3,15.7c-4.7,1.2-10.7,2-15.8,0.8C14.5,50.6,8.6,46.3,6.7,44z"
		/>
	<path class="st1" d="M30.8,50.5c0,0.6-5.2,1.3-10.6-0.1"/>
	<path class="st1" d="M58.5,27c0.3,0.4-0.3,3.6-2,5.2"/>
	<text transform="matrix(0.6026 -0.7981 0.7981 0.6026 49.6747 43.7448)" class="st2 st3 st4">wun</text>
	<text transform="matrix(0.9323 -0.3616 0.3616 0.9323 34.6992 51.3747)" class="st2 st3 st4">wun</text>
	<circle class="st2" cx="46.5" cy="44.6" r="0.9"/>
</g>
</svg>
